<?xml version="1.0" encoding="UTF-8" ?>
<!DOCTYPE svg PUBLIC "-//W3C//DTD SVG 1.1//EN" "http://www.w3.org/Graphics/SVG/1.1/DTD/svg11.dtd">
<svg width="60pt" height="60pt" viewBox="0 0 60 60" version="1.1" xmlns="http://www.w3.org/2000/svg">
<g id="#fdfdfdff">
</g>
<g id="#f08b83ff">
<path fill="#f08b83" opacity="1.00" d=" M 28.33 0.00 L 32.37 0.00 C 47.09 1.12 59.73 14.14 60.00 28.97 L 60.00 33.32 C 58.23 47.41 45.99 59.36 31.66 60.00 L 27.62 60.00 C 13.33 58.90 1.10 46.66 0.00 32.38 L 0.00 26.64 C 1.78 12.57 14.02 0.63 28.33 0.00 M 26.69 16.54 C 27.68 17.67 28.70 18.78 29.73 19.88 C 28.50 26.36 22.30 29.89 17.26 33.25 C 18.24 28.71 20.99 24.81 21.95 20.26 C 20.89 20.27 19.82 20.27 18.76 20.28 C 16.72 24.90 14.92 29.63 13.39 34.45 C 15.06 35.41 17.06 36.08 18.74 34.70 C 23.81 31.37 29.10 27.34 31.42 21.55 C 32.60 18.43 29.51 16.30 26.69 16.54 M 25.56 35.48 C 23.61 38.55 23.38 42.99 26.61 45.28 C 26.07 41.44 27.16 37.76 28.93 34.39 C 32.73 35.82 37.23 36.20 40.71 33.74 C 44.10 31.52 48.08 28.24 47.56 23.73 C 46.90 22.43 45.68 20.91 44.03 21.15 C 41.40 21.40 38.74 20.83 36.14 21.03 C 31.62 24.98 28.53 30.33 25.56 35.48 Z" />
<path fill="#f08b83" opacity="1.00" d=" M 38.11 24.01 C 39.80 22.34 42.38 22.88 44.52 22.62 C 45.42 29.67 36.49 36.53 30.20 32.57 C 32.57 29.49 35.13 26.53 38.11 24.01 Z" />
</g>
</svg>
