<?xml version="1.0" encoding="UTF-8" ?>
<!DOCTYPE svg PUBLIC "-//W3C//DTD SVG 1.1//EN" "http://www.w3.org/Graphics/SVG/1.1/DTD/svg11.dtd">
<svg width="83pt" height="80pt" viewBox="0 0 83 80" version="1.1" xmlns="http://www.w3.org/2000/svg">
<g id="#71594fff">
</g>
<g id="#f08b83ff">
<path fill="#f08b83" opacity="1.00" d=" M 32.34 12.59 C 42.44 9.47 54.42 11.33 62.11 18.91 C 69.61 25.40 73.14 35.65 71.70 45.42 C 70.80 50.91 68.47 56.15 64.81 60.37 C 59.40 66.65 51.48 70.90 43.07 70.79 C 29.07 71.91 15.94 61.27 12.75 47.87 C 11.40 41.23 11.98 34.15 14.96 28.02 C 18.53 20.96 24.81 15.16 32.34 12.59 M 39.03 30.85 C 39.98 31.76 40.81 32.76 41.52 33.86 C 39.89 38.00 36.22 41.55 32.03 42.92 C 33.18 39.87 34.81 36.94 35.66 33.83 C 34.73 33.21 33.80 33.20 32.87 33.78 C 31.59 37.08 29.75 40.27 29.34 43.84 C 28.94 45.12 30.54 45.97 31.62 45.67 C 34.20 44.34 36.59 42.66 38.59 40.54 C 40.61 38.53 43.27 36.33 42.74 33.12 C 42.98 31.28 40.57 30.12 39.03 30.85 M 42.17 39.01 C 40.18 42.40 36.96 45.63 37.31 49.85 C 37.28 51.36 38.01 52.41 39.51 53.01 C 38.93 49.94 39.68 47.03 41.04 44.29 C 46.00 47.79 52.69 43.74 55.08 38.98 C 56.47 37.09 54.90 34.81 53.02 34.08 C 50.99 34.02 48.96 34.82 46.99 34.00 C 44.83 34.88 43.74 37.35 42.17 39.01 Z" />
<path fill="#f08b83" opacity="1.00" d=" M 41.99 43.17 C 45.02 40.15 47.41 35.06 52.35 35.41 C 53.11 37.30 52.61 39.70 51.02 41.02 C 48.68 43.26 45.05 45.63 41.99 43.17 Z" />
</g>
<g id="#fff7f5ff">
<path fill="#fff7f5" opacity="1.00" d=" M 39.03 30.85 C 40.57 30.12 42.98 31.28 42.74 33.12 C 43.27 36.33 40.61 38.53 38.59 40.54 C 36.59 42.66 34.20 44.34 31.62 45.67 C 30.54 45.97 28.94 45.12 29.34 43.84 C 29.75 40.27 31.59 37.08 32.87 33.78 C 33.80 33.20 34.73 33.21 35.66 33.83 C 34.81 36.94 33.18 39.87 32.03 42.92 C 36.22 41.55 39.89 38.00 41.52 33.86 C 40.81 32.76 39.98 31.76 39.03 30.85 Z" />
</g>
<g id="#fffafaff">
<path fill="#fffafa" opacity="1.00" d=" M 42.17 39.01 C 43.74 37.35 44.83 34.88 46.99 34.00 C 48.96 34.82 50.99 34.02 53.02 34.08 C 54.90 34.81 56.47 37.09 55.08 38.98 C 52.69 43.74 46.00 47.79 41.04 44.29 C 39.68 47.03 38.93 49.94 39.51 53.01 C 38.01 52.41 37.28 51.36 37.31 49.85 C 36.96 45.63 40.18 42.40 42.17 39.01 M 41.99 43.17 C 45.05 45.63 48.68 43.26 51.02 41.02 C 52.61 39.70 53.11 37.30 52.35 35.41 C 47.41 35.06 45.02 40.15 41.99 43.17 Z" />
</g>
<g id="#7b6358ff">
</g>
<g id="#735c52ff">
</g>
</svg>
